<?xml version="1.0" encoding="UTF-8" standalone="no"?>
<!-- Created with Inkscape (http://www.inkscape.org/) -->

<svg
   xmlns:dc="http://purl.org/dc/elements/1.1/"
   xmlns:cc="http://creativecommons.org/ns#"
   xmlns:rdf="http://www.w3.org/1999/02/22-rdf-syntax-ns#"
   xmlns:svg="http://www.w3.org/2000/svg"
   xmlns="http://www.w3.org/2000/svg"
   xmlns:sodipodi="http://sodipodi.sourceforge.net/DTD/sodipodi-0.dtd"
   xmlns:inkscape="http://www.inkscape.org/namespaces/inkscape"
   width="210mm"
   height="297mm"
   viewBox="0 0 210 297"
   id="svg2"
   version="1.1"
   inkscape:version="0.91+devel+osxmenu r12922"
   sodipodi:docname="trello-reporter-charts.svg">
  <defs
     id="defs4">
    <marker
       inkscape:isstock="true"
       style="overflow:visible"
       id="marker7329"
       refX="0.0"
       refY="0.0"
       orient="auto"
       inkscape:stockid="DotM">
      <path
         transform="scale(0.4) translate(7.4, 1)"
         style="fill-rule:evenodd;stroke:#782121;stroke-width:1pt;stroke-opacity:1;fill:#782121;fill-opacity:1"
         d="M -2.5,-1.0 C -2.5,1.7600000 -4.7400000,4.0 -7.5,4.0 C -10.260000,4.0 -12.5,1.7600000 -12.5,-1.0 C -12.5,-3.7600000 -10.260000,-6.0 -7.5,-6.0 C -4.7400000,-6.0 -2.5,-3.7600000 -2.5,-1.0 z "
         id="path7331" />
    </marker>
    <marker
       inkscape:isstock="true"
       style="overflow:visible"
       id="marker7199"
       refX="0.0"
       refY="0.0"
       orient="auto"
       inkscape:stockid="DotM">
      <path
         transform="scale(0.4) translate(7.4, 1)"
         style="fill-rule:evenodd;stroke:#782121;stroke-width:1pt;stroke-opacity:1;fill:#782121;fill-opacity:1"
         d="M -2.5,-1.0 C -2.5,1.7600000 -4.7400000,4.0 -7.5,4.0 C -10.260000,4.0 -12.5,1.7600000 -12.5,-1.0 C -12.5,-3.7600000 -10.260000,-6.0 -7.5,-6.0 C -4.7400000,-6.0 -2.5,-3.7600000 -2.5,-1.0 z "
         id="path7201" />
    </marker>
    <marker
       inkscape:isstock="true"
       style="overflow:visible"
       id="marker7075"
       refX="0.0"
       refY="0.0"
       orient="auto"
       inkscape:stockid="DotM">
      <path
         transform="scale(0.4) translate(7.4, 1)"
         style="fill-rule:evenodd;stroke:#782121;stroke-width:1pt;stroke-opacity:1;fill:#782121;fill-opacity:1"
         d="M -2.5,-1.0 C -2.5,1.7600000 -4.7400000,4.0 -7.5,4.0 C -10.260000,4.0 -12.5,1.7600000 -12.5,-1.0 C -12.5,-3.7600000 -10.260000,-6.0 -7.5,-6.0 C -4.7400000,-6.0 -2.5,-3.7600000 -2.5,-1.0 z "
         id="path7077" />
    </marker>
    <marker
       inkscape:isstock="true"
       style="overflow:visible"
       id="marker6645"
       refX="0.0"
       refY="0.0"
       orient="auto"
       inkscape:stockid="DotL">
      <path
         transform="scale(0.8) translate(7.4, 1)"
         style="fill-rule:evenodd;stroke:#782121;stroke-width:1pt;stroke-opacity:1;fill:#782121;fill-opacity:1"
         d="M -2.5,-1.0 C -2.5,1.7600000 -4.7400000,4.0 -7.5,4.0 C -10.260000,4.0 -12.5,1.7600000 -12.5,-1.0 C -12.5,-3.7600000 -10.260000,-6.0 -7.5,-6.0 C -4.7400000,-6.0 -2.5,-3.7600000 -2.5,-1.0 z "
         id="path6647" />
    </marker>
    <marker
       inkscape:isstock="true"
       style="overflow:visible"
       id="marker6539"
       refX="0.0"
       refY="0.0"
       orient="auto"
       inkscape:stockid="DotL">
      <path
         transform="scale(0.8) translate(7.4, 1)"
         style="fill-rule:evenodd;stroke:#782121;stroke-width:1pt;stroke-opacity:1;fill:#782121;fill-opacity:1"
         d="M -2.5,-1.0 C -2.5,1.7600000 -4.7400000,4.0 -7.5,4.0 C -10.260000,4.0 -12.5,1.7600000 -12.5,-1.0 C -12.5,-3.7600000 -10.260000,-6.0 -7.5,-6.0 C -4.7400000,-6.0 -2.5,-3.7600000 -2.5,-1.0 z "
         id="path6541" />
    </marker>
    <marker
       inkscape:isstock="true"
       style="overflow:visible"
       id="marker6196"
       refX="0.0"
       refY="0.0"
       orient="auto"
       inkscape:stockid="DotL">
      <path
         transform="scale(0.8) translate(7.4, 1)"
         style="fill-rule:evenodd;stroke:#782121;stroke-width:1pt;stroke-opacity:1;fill:#782121;fill-opacity:1"
         d="M -2.5,-1.0 C -2.5,1.7600000 -4.7400000,4.0 -7.5,4.0 C -10.260000,4.0 -12.5,1.7600000 -12.5,-1.0 C -12.5,-3.7600000 -10.260000,-6.0 -7.5,-6.0 C -4.7400000,-6.0 -2.5,-3.7600000 -2.5,-1.0 z "
         id="path6198" />
    </marker>
    <marker
       inkscape:isstock="true"
       style="overflow:visible"
       id="marker6114"
       refX="0.0"
       refY="0.0"
       orient="auto"
       inkscape:stockid="DotL">
      <path
         transform="scale(0.8) translate(7.4, 1)"
         style="fill-rule:evenodd;stroke:#782121;stroke-width:1pt;stroke-opacity:1;fill:#782121;fill-opacity:1"
         d="M -2.5,-1.0 C -2.5,1.7600000 -4.7400000,4.0 -7.5,4.0 C -10.260000,4.0 -12.5,1.7600000 -12.5,-1.0 C -12.5,-3.7600000 -10.260000,-6.0 -7.5,-6.0 C -4.7400000,-6.0 -2.5,-3.7600000 -2.5,-1.0 z "
         id="path6116" />
    </marker>
    <marker
       inkscape:isstock="true"
       style="overflow:visible"
       id="marker6038"
       refX="0.0"
       refY="0.0"
       orient="auto"
       inkscape:stockid="DotL">
      <path
         transform="scale(0.8) translate(7.4, 1)"
         style="fill-rule:evenodd;stroke:#782121;stroke-width:1pt;stroke-opacity:1;fill:#782121;fill-opacity:1"
         d="M -2.5,-1.0 C -2.5,1.7600000 -4.7400000,4.0 -7.5,4.0 C -10.260000,4.0 -12.5,1.7600000 -12.5,-1.0 C -12.5,-3.7600000 -10.260000,-6.0 -7.5,-6.0 C -4.7400000,-6.0 -2.5,-3.7600000 -2.5,-1.0 z "
         id="path6040" />
    </marker>
    <marker
       inkscape:stockid="DotL"
       orient="auto"
       refY="0.0"
       refX="0.0"
       id="marker5912"
       style="overflow:visible"
       inkscape:isstock="true">
      <path
         id="path5914"
         d="M -2.5,-1.0 C -2.5,1.7600000 -4.7400000,4.0 -7.5,4.0 C -10.260000,4.0 -12.5,1.7600000 -12.5,-1.0 C -12.5,-3.7600000 -10.260000,-6.0 -7.5,-6.0 C -4.7400000,-6.0 -2.5,-3.7600000 -2.5,-1.0 z "
         style="fill-rule:evenodd;stroke:#806600;stroke-width:1pt;stroke-opacity:1;fill:#806600;fill-opacity:1"
         transform="scale(0.8) translate(7.4, 1)" />
    </marker>
    <marker
       inkscape:stockid="DotL"
       orient="auto"
       refY="0.0"
       refX="0.0"
       id="marker5848"
       style="overflow:visible"
       inkscape:isstock="true">
      <path
         id="path5850"
         d="M -2.5,-1.0 C -2.5,1.7600000 -4.7400000,4.0 -7.5,4.0 C -10.260000,4.0 -12.5,1.7600000 -12.5,-1.0 C -12.5,-3.7600000 -10.260000,-6.0 -7.5,-6.0 C -4.7400000,-6.0 -2.5,-3.7600000 -2.5,-1.0 z "
         style="fill-rule:evenodd;stroke:#806600;stroke-width:1pt;stroke-opacity:1;fill:#806600;fill-opacity:1"
         transform="scale(0.8) translate(7.4, 1)" />
    </marker>
    <marker
       inkscape:stockid="DotL"
       orient="auto"
       refY="0.0"
       refX="0.0"
       id="marker5790"
       style="overflow:visible"
       inkscape:isstock="true">
      <path
         id="path5792"
         d="M -2.5,-1.0 C -2.5,1.7600000 -4.7400000,4.0 -7.5,4.0 C -10.260000,4.0 -12.5,1.7600000 -12.5,-1.0 C -12.5,-3.7600000 -10.260000,-6.0 -7.5,-6.0 C -4.7400000,-6.0 -2.5,-3.7600000 -2.5,-1.0 z "
         style="fill-rule:evenodd;stroke:#806600;stroke-width:1pt;stroke-opacity:1;fill:#806600;fill-opacity:1"
         transform="scale(0.8) translate(7.4, 1)" />
    </marker>
    <marker
       inkscape:isstock="true"
       style="overflow:visible"
       id="marker5682"
       refX="0.0"
       refY="0.0"
       orient="auto"
       inkscape:stockid="DotL"
       inkscape:collect="always">
      <path
         transform="scale(0.8) translate(7.4, 1)"
         style="fill-rule:evenodd;stroke:#000000;stroke-width:1pt;stroke-opacity:1;fill:#000000;fill-opacity:1"
         d="M -2.5,-1.0 C -2.5,1.7600000 -4.7400000,4.0 -7.5,4.0 C -10.260000,4.0 -12.5,1.7600000 -12.5,-1.0 C -12.5,-3.7600000 -10.260000,-6.0 -7.5,-6.0 C -4.7400000,-6.0 -2.5,-3.7600000 -2.5,-1.0 z "
         id="path5684" />
    </marker>
    <marker
       inkscape:isstock="true"
       style="overflow:visible"
       id="marker5636"
       refX="0.0"
       refY="0.0"
       orient="auto"
       inkscape:stockid="DotL">
      <path
         transform="scale(0.8) translate(7.4, 1)"
         style="fill-rule:evenodd;stroke:#214478;stroke-width:1pt;stroke-opacity:1;fill:#214478;fill-opacity:1"
         d="M -2.5,-1.0 C -2.5,1.7600000 -4.7400000,4.0 -7.5,4.0 C -10.260000,4.0 -12.5,1.7600000 -12.5,-1.0 C -12.5,-3.7600000 -10.260000,-6.0 -7.5,-6.0 C -4.7400000,-6.0 -2.5,-3.7600000 -2.5,-1.0 z "
         id="path5638" />
    </marker>
    <marker
       inkscape:isstock="true"
       style="overflow:visible"
       id="marker5596"
       refX="0.0"
       refY="0.0"
       orient="auto"
       inkscape:stockid="DotL">
      <path
         transform="scale(0.8) translate(7.4, 1)"
         style="fill-rule:evenodd;stroke:#214478;stroke-width:1pt;stroke-opacity:1;fill:#214478;fill-opacity:1"
         d="M -2.5,-1.0 C -2.5,1.7600000 -4.7400000,4.0 -7.5,4.0 C -10.260000,4.0 -12.5,1.7600000 -12.5,-1.0 C -12.5,-3.7600000 -10.260000,-6.0 -7.5,-6.0 C -4.7400000,-6.0 -2.5,-3.7600000 -2.5,-1.0 z "
         id="path5598" />
    </marker>
    <marker
       inkscape:stockid="DotL"
       orient="auto"
       refY="0.0"
       refX="0.0"
       id="marker4993"
       style="overflow:visible"
       inkscape:isstock="true"
       inkscape:collect="always">
      <path
         id="path4995"
         d="M -2.5,-1.0 C -2.5,1.7600000 -4.7400000,4.0 -7.5,4.0 C -10.260000,4.0 -12.5,1.7600000 -12.5,-1.0 C -12.5,-3.7600000 -10.260000,-6.0 -7.5,-6.0 C -4.7400000,-6.0 -2.5,-3.7600000 -2.5,-1.0 z "
         style="fill-rule:evenodd;stroke:#214478;stroke-width:1pt;stroke-opacity:1;fill:#b7bec8;fill-opacity:1"
         transform="scale(0.8) translate(7.4, 1)" />
    </marker>
    <marker
       inkscape:isstock="true"
       style="overflow:visible"
       id="marker4915"
       refX="0.0"
       refY="0.0"
       orient="auto"
       inkscape:stockid="DotL"
       inkscape:collect="always">
      <path
         transform="scale(0.8) translate(7.4, 1)"
         style="fill-rule:evenodd;stroke:#806600;stroke-width:1pt;stroke-opacity:1;fill:#e9ddaf;fill-opacity:1"
         d="M -2.5,-1.0 C -2.5,1.7600000 -4.7400000,4.0 -7.5,4.0 C -10.260000,4.0 -12.5,1.7600000 -12.5,-1.0 C -12.5,-3.7600000 -10.260000,-6.0 -7.5,-6.0 C -4.7400000,-6.0 -2.5,-3.7600000 -2.5,-1.0 z "
         id="path4917" />
    </marker>
    <marker
       inkscape:stockid="DotM"
       orient="auto"
       refY="0.0"
       refX="0.0"
       id="DotM"
       style="overflow:visible"
       inkscape:isstock="true"
       inkscape:collect="always">
      <path
         id="path4224"
         d="M -2.5,-1.0 C -2.5,1.7600000 -4.7400000,4.0 -7.5,4.0 C -10.260000,4.0 -12.5,1.7600000 -12.5,-1.0 C -12.5,-3.7600000 -10.260000,-6.0 -7.5,-6.0 C -4.7400000,-6.0 -2.5,-3.7600000 -2.5,-1.0 z "
         style="fill-rule:evenodd;stroke:#214478;stroke-width:1pt;stroke-opacity:1;fill:#214478;fill-opacity:1"
         transform="scale(0.4) translate(7.4, 1)" />
    </marker>
    <marker
       inkscape:stockid="DotL"
       orient="auto"
       refY="0.0"
       refX="0.0"
       id="DotL"
       style="overflow:visible"
       inkscape:isstock="true"
       inkscape:collect="always">
      <path
         id="path4221"
         d="M -2.5,-1.0 C -2.5,1.7600000 -4.7400000,4.0 -7.5,4.0 C -10.260000,4.0 -12.5,1.7600000 -12.5,-1.0 C -12.5,-3.7600000 -10.260000,-6.0 -7.5,-6.0 C -4.7400000,-6.0 -2.5,-3.7600000 -2.5,-1.0 z "
         style="fill-rule:evenodd;stroke:#782121;stroke-width:1pt;stroke-opacity:1;fill:#e9afaf;fill-opacity:1"
         transform="scale(0.8) translate(7.4, 1)" />
    </marker>
  </defs>
  <sodipodi:namedview
     id="base"
     pagecolor="#ffffff"
     bordercolor="#666666"
     borderopacity="1.0"
     inkscape:pageopacity="0.0"
     inkscape:pageshadow="2"
     inkscape:zoom="2.7972815"
     inkscape:cx="383.84118"
     inkscape:cy="870.66397"
     inkscape:document-units="mm"
     inkscape:current-layer="layer1"
     showgrid="true"
     showguides="false"
     inkscape:guide-bbox="true"
     inkscape:window-width="1600"
     inkscape:window-height="1155"
     inkscape:window-x="1600"
     inkscape:window-y="23"
     inkscape:window-maximized="0">
    <inkscape:grid
       type="xygrid"
       id="grid4141" />
  </sodipodi:namedview>
  <metadata
     id="metadata7">
    <rdf:RDF>
      <cc:Work
         rdf:about="">
        <dc:format>image/svg+xml</dc:format>
        <dc:type
           rdf:resource="http://purl.org/dc/dcmitype/StillImage" />
        <dc:title></dc:title>
      </cc:Work>
    </rdf:RDF>
  </metadata>
  <g
     inkscape:label="Layer 1"
     inkscape:groupmode="layer"
     id="layer1">
    <path
       style="fill:#b7bec8;fill-rule:evenodd;stroke:#214478;stroke-width:0.26458332px;stroke-linecap:butt;stroke-linejoin:miter;stroke-opacity:1;marker-start:url(#marker4993);marker-mid:url(#marker4993);marker-end:url(#marker4993);fill-opacity:1"
       d="m 10.583333,44.322918 15.875,-1.322917 15.875,0 15.875,1.322917 15.874999,-2.645834 3.96875,0 0,26.458335 -71.4374988,0 0,-23.812501 z"
       id="path4991"
       inkscape:connector-curvature="0" />
    <path
       style="fill:#e9ddaf;fill-rule:evenodd;stroke:#806600;stroke-width:0.26458332px;stroke-linecap:butt;stroke-linejoin:miter;stroke-opacity:1;marker-start:url(#marker4915);marker-mid:url(#marker4915);marker-end:url(#marker4915);fill-opacity:1"
       d="m 10.583333,49.614586 15.875,1.322916 15.875,-2.645833 15.875,1.322917 15.874999,-3.968752 3.96875,0 0,22.489585 -71.4374988,0 0,-18.520833 z"
       id="path4913"
       inkscape:connector-curvature="0" />
    <path
       style="fill:#e9afaf;fill-rule:evenodd;stroke:#782121;stroke-width:0.26458332px;stroke-linecap:butt;stroke-linejoin:miter;stroke-opacity:1;marker-start:url(#DotL);marker-mid:url(#DotL);marker-end:url(#DotL);fill-opacity:1"
       d="m 10.583333,58.875002 15.875,-1.322916 15.875,1.322916 15.875,2.645833 15.874999,-1.322916 3.96875,0 0,7.9375 -71.4374988,0 0,-9.260417 z"
       id="path4797"
       inkscape:connector-curvature="0" />
    <rect
       style="opacity:1;fill:none;fill-opacity:0;stroke:#cccccc;stroke-width:0.26458332;stroke-miterlimit:4;stroke-dasharray:none"
       id="rect4143"
       width="63.499996"
       height="31.75"
       x="10.583333"
       y="32.416664"
       inkscape:export-xdpi="96"
       inkscape:export-ydpi="96" />
    <g
       id="g4749"
       transform="translate(5.2916667,68.79167)">
      <path
         style="fill:#cccccc;fill-rule:evenodd;stroke:#cccccc;stroke-width:0.26458332;stroke-linecap:butt;stroke-linejoin:miter;stroke-miterlimit:4;stroke-dasharray:none;stroke-opacity:1"
         d="m 21.166666,5.9583306 0,31.7500034"
         id="path4751"
         inkscape:connector-curvature="0" />
      <path
         style="fill:#cccccc;fill-rule:evenodd;stroke:#cccccc;stroke-width:0.26458332;stroke-linecap:butt;stroke-linejoin:miter;stroke-miterlimit:4;stroke-dasharray:none;stroke-opacity:1"
         d="m 37.041666,5.9583332 0,31.7500008"
         id="path4753"
         inkscape:connector-curvature="0" />
      <path
         style="fill:#cccccc;fill-rule:evenodd;stroke:#cccccc;stroke-width:0.26458332;stroke-linecap:butt;stroke-linejoin:miter;stroke-miterlimit:4;stroke-dasharray:none;stroke-opacity:1"
         d="m 52.916666,5.9583332 0,31.7500008"
         id="path4755"
         inkscape:connector-curvature="0" />
      <path
         style="fill:#cccccc;fill-rule:evenodd;stroke:#cccccc;stroke-width:0.26458332;stroke-linecap:butt;stroke-linejoin:miter;stroke-miterlimit:4;stroke-dasharray:none;stroke-opacity:1"
         d="m 5.2916663,13.895833 63.4999997,-2e-6"
         id="path4757"
         inkscape:connector-curvature="0" />
      <path
         style="fill:#cccccc;fill-rule:evenodd;stroke:#cccccc;stroke-width:0.26458332;stroke-linecap:butt;stroke-linejoin:miter;stroke-miterlimit:4;stroke-dasharray:none;stroke-opacity:1"
         d="m 5.2916666,21.833333 63.4999964,0"
         id="path4759"
         inkscape:connector-curvature="0" />
      <path
         style="fill:#cccccc;fill-rule:evenodd;stroke:#cccccc;stroke-width:0.26458332;stroke-linecap:butt;stroke-linejoin:miter;stroke-miterlimit:4;stroke-dasharray:none;stroke-opacity:1"
         d="m 5.2916666,29.770832 63.4999994,2e-6"
         id="path4761"
         inkscape:connector-curvature="0" />
      <rect
         style="opacity:1;fill:none;fill-opacity:0;stroke:#cccccc;stroke-width:0.26458332;stroke-miterlimit:4;stroke-dasharray:none"
         id="rect4763"
         width="63.499996"
         height="31.75"
         x="5.2916665"
         y="5.9583325"
         inkscape:export-xdpi="96"
         inkscape:export-ydpi="96" />
    </g>
    <g
       transform="translate(79.375004,26.458334)"
       id="g4765">
      <path
         style="fill:#cccccc;fill-rule:evenodd;stroke:#cccccc;stroke-width:0.26458332;stroke-linecap:butt;stroke-linejoin:miter;stroke-miterlimit:4;stroke-dasharray:none;stroke-opacity:1"
         d="m 21.166666,5.9583306 0,31.7500034"
         id="path4767"
         inkscape:connector-curvature="0" />
      <path
         style="fill:#cccccc;fill-rule:evenodd;stroke:#cccccc;stroke-width:0.26458332;stroke-linecap:butt;stroke-linejoin:miter;stroke-miterlimit:4;stroke-dasharray:none;stroke-opacity:1"
         d="m 37.041666,5.9583332 0,31.7500008"
         id="path4769"
         inkscape:connector-curvature="0" />
      <path
         style="fill:#cccccc;fill-rule:evenodd;stroke:#cccccc;stroke-width:0.26458332;stroke-linecap:butt;stroke-linejoin:miter;stroke-miterlimit:4;stroke-dasharray:none;stroke-opacity:1"
         d="m 52.916666,5.9583332 0,31.7500008"
         id="path4771"
         inkscape:connector-curvature="0" />
      <path
         style="fill:#cccccc;fill-rule:evenodd;stroke:#cccccc;stroke-width:0.26458332;stroke-linecap:butt;stroke-linejoin:miter;stroke-miterlimit:4;stroke-dasharray:none;stroke-opacity:1"
         d="m 5.2916663,13.895833 63.4999997,-2e-6"
         id="path4773"
         inkscape:connector-curvature="0" />
      <path
         style="fill:#cccccc;fill-rule:evenodd;stroke:#cccccc;stroke-width:0.26458332;stroke-linecap:butt;stroke-linejoin:miter;stroke-miterlimit:4;stroke-dasharray:none;stroke-opacity:1"
         d="m 5.2916666,21.833333 63.4999964,0"
         id="path4775"
         inkscape:connector-curvature="0" />
      <path
         style="fill:#cccccc;fill-rule:evenodd;stroke:#cccccc;stroke-width:0.26458332;stroke-linecap:butt;stroke-linejoin:miter;stroke-miterlimit:4;stroke-dasharray:none;stroke-opacity:1"
         d="m 5.2916666,29.770832 63.4999994,2e-6"
         id="path4777"
         inkscape:connector-curvature="0" />
      <rect
         style="opacity:1;fill:none;fill-opacity:0;stroke:#cccccc;stroke-width:0.26458332;stroke-miterlimit:4;stroke-dasharray:none"
         id="rect4779"
         width="63.499996"
         height="31.75"
         x="5.2916665"
         y="5.9583325"
         inkscape:export-xdpi="96"
         inkscape:export-ydpi="96" />
    </g>
    <g
       transform="translate(79.375004,68.79167)"
       id="g4781">
      <path
         inkscape:connector-curvature="0"
         id="path4783"
         d="m 21.166666,5.9583306 0,31.7500034"
         style="fill:#cccccc;fill-rule:evenodd;stroke:#cccccc;stroke-width:0.26458332;stroke-linecap:butt;stroke-linejoin:miter;stroke-miterlimit:4;stroke-dasharray:none;stroke-opacity:1" />
      <path
         inkscape:connector-curvature="0"
         id="path4785"
         d="m 37.041666,5.9583332 0,31.7500008"
         style="fill:#cccccc;fill-rule:evenodd;stroke:#cccccc;stroke-width:0.26458332;stroke-linecap:butt;stroke-linejoin:miter;stroke-miterlimit:4;stroke-dasharray:none;stroke-opacity:1" />
      <path
         inkscape:connector-curvature="0"
         id="path4787"
         d="m 52.916666,5.9583332 0,31.7500008"
         style="fill:#cccccc;fill-rule:evenodd;stroke:#cccccc;stroke-width:0.26458332;stroke-linecap:butt;stroke-linejoin:miter;stroke-miterlimit:4;stroke-dasharray:none;stroke-opacity:1" />
      <path
         inkscape:connector-curvature="0"
         id="path4789"
         d="m 5.2916663,13.895833 63.4999997,-2e-6"
         style="fill:#cccccc;fill-rule:evenodd;stroke:#cccccc;stroke-width:0.26458332;stroke-linecap:butt;stroke-linejoin:miter;stroke-miterlimit:4;stroke-dasharray:none;stroke-opacity:1" />
      <path
         inkscape:connector-curvature="0"
         id="path4791"
         d="m 5.2916666,21.833333 63.4999964,0"
         style="fill:#cccccc;fill-rule:evenodd;stroke:#cccccc;stroke-width:0.26458332;stroke-linecap:butt;stroke-linejoin:miter;stroke-miterlimit:4;stroke-dasharray:none;stroke-opacity:1" />
      <path
         inkscape:connector-curvature="0"
         id="path4793"
         d="m 5.2916666,29.770832 63.4999994,2e-6"
         style="fill:#cccccc;fill-rule:evenodd;stroke:#cccccc;stroke-width:0.26458332;stroke-linecap:butt;stroke-linejoin:miter;stroke-miterlimit:4;stroke-dasharray:none;stroke-opacity:1" />
      <rect
         inkscape:export-ydpi="96"
         inkscape:export-xdpi="96"
         y="5.9583325"
         x="5.2916665"
         height="31.75"
         width="63.499996"
         id="rect4795"
         style="opacity:1;fill:none;fill-opacity:0;stroke:#cccccc;stroke-width:0.26458332;stroke-miterlimit:4;stroke-dasharray:none" />
    </g>
    <rect
       style="opacity:1;fill:#782121;fill-opacity:1;stroke:none;stroke-width:0.26458332;stroke-miterlimit:4;stroke-dasharray:none"
       id="rect5236"
       width="22.489584"
       height="9.260417"
       x="10.583333"
       y="4.635417" />
    <rect
       style="opacity:1;fill:#e9afaf;fill-opacity:1;stroke:none;stroke-width:0.28578267;stroke-miterlimit:4;stroke-dasharray:none"
       id="rect5238"
       width="22.489584"
       height="9.2604179"
       x="10.583333"
       y="13.895833" />
    <rect
       y="4.635417"
       x="37.041664"
       height="9.260417"
       width="22.489584"
       id="rect5240"
       style="opacity:1;fill:#806600;fill-opacity:1;stroke:none;stroke-width:0.26458332;stroke-miterlimit:4;stroke-dasharray:none" />
    <rect
       y="13.895833"
       x="37.041664"
       height="9.2604179"
       width="22.489584"
       id="rect5242"
       style="opacity:1;fill:#e9ddaf;fill-opacity:1;stroke:none;stroke-width:0.28578267;stroke-miterlimit:4;stroke-dasharray:none" />
    <rect
       style="opacity:1;fill:#447821;fill-opacity:1;stroke:none;stroke-width:0.26458332;stroke-miterlimit:4;stroke-dasharray:none"
       id="rect5244"
       width="22.489584"
       height="9.260417"
       x="63.500004"
       y="4.635417" />
    <rect
       style="opacity:1;fill:#bec8b7;fill-opacity:1;stroke:none;stroke-width:0.28578267;stroke-miterlimit:4;stroke-dasharray:none"
       id="rect5246"
       width="22.489584"
       height="9.2604179"
       x="63.500004"
       y="13.895833" />
    <rect
       y="4.635417"
       x="89.958328"
       height="9.260417"
       width="22.489584"
       id="rect5248"
       style="opacity:1;fill:#214478;fill-opacity:1;stroke:none;stroke-width:0.26458332;stroke-miterlimit:4;stroke-dasharray:none" />
    <rect
       y="13.895833"
       x="89.958328"
       height="9.2604179"
       width="22.489584"
       id="rect5250"
       style="opacity:1;fill:#b7bec8;fill-opacity:1;stroke:none;stroke-width:0.28578267;stroke-miterlimit:4;stroke-dasharray:none" />
    <g
       id="g5208"
       transform="translate(0,21.166667)"
       style="stroke:#cccccc;stroke-opacity:1">
      <path
         inkscape:connector-curvature="0"
         id="path4728"
         d="m 26.458333,11.249997 0,31.750004"
         style="fill:#cccccc;fill-rule:evenodd;stroke:#cccccc;stroke-width:0.26458332;stroke-linecap:butt;stroke-linejoin:miter;stroke-miterlimit:4;stroke-dasharray:none;stroke-opacity:1" />
      <path
         inkscape:connector-curvature="0"
         id="path4730"
         d="m 42.333333,11.25 0,31.750001"
         style="fill:#cccccc;fill-rule:evenodd;stroke:#cccccc;stroke-width:0.26458332;stroke-linecap:butt;stroke-linejoin:miter;stroke-miterlimit:4;stroke-dasharray:none;stroke-opacity:1" />
      <path
         inkscape:connector-curvature="0"
         id="path4732"
         d="m 58.208333,11.25 0,31.750001"
         style="fill:#cccccc;fill-rule:evenodd;stroke:#cccccc;stroke-width:0.26458332;stroke-linecap:butt;stroke-linejoin:miter;stroke-miterlimit:4;stroke-dasharray:none;stroke-opacity:1" />
      <path
         inkscape:connector-curvature="0"
         id="path4734"
         d="m 10.583333,19.1875 63.5,-2e-6"
         style="fill:#cccccc;fill-rule:evenodd;stroke:#cccccc;stroke-width:0.26458332;stroke-linecap:butt;stroke-linejoin:miter;stroke-miterlimit:4;stroke-dasharray:none;stroke-opacity:1" />
      <path
         inkscape:connector-curvature="0"
         id="path4736"
         d="m 10.583333,27.125 63.499997,0"
         style="fill:#cccccc;fill-rule:evenodd;stroke:#cccccc;stroke-width:0.26458332;stroke-linecap:butt;stroke-linejoin:miter;stroke-miterlimit:4;stroke-dasharray:none;stroke-opacity:1" />
      <path
         inkscape:connector-curvature="0"
         id="path4738"
         d="m 10.583333,35.062499 63.5,2e-6"
         style="fill:#cccccc;fill-rule:evenodd;stroke:#cccccc;stroke-width:0.26458332;stroke-linecap:butt;stroke-linejoin:miter;stroke-miterlimit:4;stroke-dasharray:none;stroke-opacity:1" />
    </g>
    <path
       inkscape:connector-curvature="0"
       id="path5594"
       d="m 10.583333,44.322918 15.875,-1.322917 15.875,0 15.875,1.322917 15.874999,-2.645834 3.96875,0 0,26.458335 -71.4374988,0 0,-23.812501 z"
       style="fill:none;fill-rule:evenodd;stroke:#214478;stroke-width:0.26458332px;stroke-linecap:butt;stroke-linejoin:miter;stroke-opacity:1;marker-start:url(#marker5596);marker-mid:url(#marker5636);marker-end:url(#marker5682);fill-opacity:1" />
    <path
       inkscape:connector-curvature="0"
       id="path5788"
       d="m 10.583333,49.614586 15.875,1.322916 15.875,-2.645833 15.875,1.322917 15.874999,-3.968752 3.96875,0 0,22.489585 -71.4374988,0 0,-18.520833 z"
       style="fill:none;fill-rule:evenodd;stroke:#806600;stroke-width:0.26458332px;stroke-linecap:butt;stroke-linejoin:miter;stroke-opacity:1;marker-start:url(#marker5790);marker-mid:url(#marker5848);marker-end:url(#marker5912);fill-opacity:1" />
    <path
       inkscape:connector-curvature="0"
       id="path6036"
       d="m 10.583333,58.875002 15.875,-1.322916 15.875,1.322916 15.875,2.645833 15.874999,-1.322916 3.96875,0 0,7.9375 -71.4374988,0 0,-9.260417 z"
       style="fill:none;fill-rule:evenodd;stroke:#782121;stroke-width:0.26458332px;stroke-linecap:butt;stroke-linejoin:miter;stroke-opacity:1;marker-start:url(#marker6038);marker-mid:url(#marker6114);marker-end:url(#marker6196);fill-opacity:1" />
    <circle
       style="opacity:1;fill:#214478;fill-opacity:1;stroke:none;stroke-width:0.47184026;stroke-miterlimit:4;stroke-dasharray:none;stroke-opacity:1"
       id="circle6345"
       cx="106.14901"
       cy="39.939232"
       r="2.5301723" />
    <circle
       r="2.5301723"
       cy="46.276485"
       cx="130.07924"
       id="circle6347"
       style="opacity:1;fill:#214478;fill-opacity:1;stroke:none;stroke-width:0.47184026;stroke-miterlimit:4;stroke-dasharray:none;stroke-opacity:1" />
    <circle
       r="1.8444247"
       cy="51.78611"
       cx="114.35434"
       id="circle6349"
       style="opacity:1;fill:#214478;fill-opacity:1;stroke:none;stroke-width:0.34395832;stroke-miterlimit:4;stroke-dasharray:none;stroke-opacity:1" />
    <circle
       style="opacity:1;fill:#214478;fill-opacity:1;stroke:none;stroke-width:0.34395832;stroke-miterlimit:4;stroke-dasharray:none;stroke-opacity:1"
       id="circle6351"
       cx="94.585892"
       cy="45.1651"
       r="1.8444247" />
    <circle
       r="1.8444247"
       cy="44.786758"
       cx="141.59508"
       id="circle6353"
       style="opacity:1;fill:#214478;fill-opacity:1;stroke:none;stroke-width:0.34395832;stroke-miterlimit:4;stroke-dasharray:none;stroke-opacity:1" />
    <circle
       r="1.111384"
       cy="59.234749"
       cx="93.048859"
       id="circle6357"
       style="opacity:1;fill:#214478;fill-opacity:1;stroke:none;stroke-width:0.20725693;stroke-miterlimit:4;stroke-dasharray:none;stroke-opacity:1" />
    <circle
       style="opacity:1;fill:#214478;fill-opacity:1;stroke:none;stroke-width:0.20725693;stroke-miterlimit:4;stroke-dasharray:none;stroke-opacity:1"
       id="circle6359"
       cx="99.764458"
       cy="55.545898"
       r="1.111384" />
    <circle
       r="1.111384"
       cy="48.924889"
       cx="108.08801"
       id="circle6361"
       style="opacity:1;fill:#214478;fill-opacity:1;stroke:none;stroke-width:0.20725693;stroke-miterlimit:4;stroke-dasharray:none;stroke-opacity:1" />
    <circle
       style="opacity:1;fill:#214478;fill-opacity:1;stroke:none;stroke-width:0.20725693;stroke-miterlimit:4;stroke-dasharray:none;stroke-opacity:1"
       id="circle6363"
       cx="123.88386"
       cy="53.843357"
       r="1.111384" />
    <circle
       r="1.111384"
       cy="54.316284"
       cx="135.99084"
       id="circle6365"
       style="opacity:1;fill:#214478;fill-opacity:1;stroke:none;stroke-width:0.20725693;stroke-miterlimit:4;stroke-dasharray:none;stroke-opacity:1" />
    <circle
       r="1.111384"
       cy="58.005135"
       cx="117.92495"
       id="circle6367"
       style="opacity:1;fill:#214478;fill-opacity:1;stroke:none;stroke-width:0.20725693;stroke-miterlimit:4;stroke-dasharray:none;stroke-opacity:1" />
    <circle
       style="opacity:1;fill:#214478;fill-opacity:1;stroke:none;stroke-width:0.34395832;stroke-miterlimit:4;stroke-dasharray:none;stroke-opacity:1"
       id="circle6371"
       cx="119.84032"
       cy="41.760006"
       r="1.8444247" />
    <path
       style="fill:none;fill-rule:evenodd;stroke:#214478;stroke-width:0.52916667;stroke-linecap:butt;stroke-linejoin:miter;stroke-opacity:1;stroke-miterlimit:4;stroke-dasharray:none;marker-start:url(#DotM);marker-end:url(#DotM)"
       d="M 13.229167,80.041667 71.437499,106.5"
       id="path6375"
       inkscape:connector-curvature="0" />
    <path
       style="fill:none;fill-rule:evenodd;stroke:#782121;stroke-width:0.5291667;stroke-linecap:butt;stroke-linejoin:miter;stroke-miterlimit:4;stroke-dasharray:none;stroke-opacity:1;marker-start:url(#marker7075);marker-mid:url(#marker7199);marker-end:url(#marker7329)"
       d="m 13.229167,80.041669 13.229166,1.322914 15.875,15.875002 15.875,1.322915 13.229166,7.93752"
       id="path6537"
       inkscape:connector-curvature="0"
       sodipodi:nodetypes="ccccc" />
    <rect
       style="opacity:1;fill:#bec8b7;fill-opacity:1;stroke:none;stroke-width:0.55779064;stroke-miterlimit:4;stroke-dasharray:none;stroke-opacity:1"
       id="rect7717"
       width="5.2916665"
       height="13.229167"
       x="87.3125"
       y="93.270836" />
    <rect
       style="opacity:1;fill:#447821;fill-opacity:1;stroke:none;stroke-width:0.52916664;stroke-miterlimit:4;stroke-dasharray:none;stroke-opacity:1"
       id="rect7719"
       width="5.2916665"
       height="18.520834"
       x="92.604164"
       y="87.979164" />
    <rect
       y="89.302086"
       x="103.1875"
       height="17.197916"
       width="5.2916665"
       id="rect7721"
       style="opacity:1;fill:#bec8b7;fill-opacity:1;stroke:none;stroke-width:0.63597906;stroke-miterlimit:4;stroke-dasharray:none;stroke-opacity:1" />
    <rect
       y="91.947914"
       x="108.47916"
       height="14.552083"
       width="5.2916665"
       id="rect7723"
       style="opacity:1;fill:#447821;fill-opacity:1;stroke:none;stroke-width:0.4690561;stroke-miterlimit:4;stroke-dasharray:none;stroke-opacity:1" />
    <rect
       style="opacity:1;fill:#bec8b7;fill-opacity:1;stroke:none;stroke-width:0.65998673;stroke-miterlimit:4;stroke-dasharray:none;stroke-opacity:1"
       id="rect7725"
       width="5.2916665"
       height="18.520834"
       x="119.0625"
       y="87.979164" />
    <rect
       style="opacity:1;fill:#447821;fill-opacity:1;stroke:none;stroke-width:0.54773945;stroke-miterlimit:4;stroke-dasharray:none;stroke-opacity:1"
       id="rect7727"
       width="5.2916665"
       height="19.843748"
       x="124.35416"
       y="86.65625" />
    <rect
       y="85.333336"
       x="134.9375"
       height="21.166666"
       width="5.2916665"
       id="rect7729"
       style="opacity:1;fill:#bec8b7;fill-opacity:1;stroke:none;stroke-width:0.70555556;stroke-miterlimit:4;stroke-dasharray:none;stroke-opacity:1" />
    <rect
       y="90.625"
       x="140.22916"
       height="15.874998"
       width="5.2916665"
       id="rect7731"
       style="opacity:1;fill:#447821;fill-opacity:1;stroke:none;stroke-width:0.48991308;stroke-miterlimit:4;stroke-dasharray:none;stroke-opacity:1" />
  </g>
</svg>
